<svg xmlns="http://www.w3.org/2000/svg" viewBox="0 0 141.73 141.49"><defs><style>.cls-1{fill:#1d1d1b;}.cls-2{fill:#f2b3b3;}.cls-2,.cls-3,.cls-4,.cls-5{opacity:0.63;}.cls-3{fill:#e17f93;}.cls-4{fill:#ef969f;}.cls-5{fill:#eba7ac;}</style></defs><title>logo</title><g id="Calque_3" data-name="Calque 3"><path class="cls-1" d="M34.43,113.74a8.14,8.14,0,0,1-1.85-.23,4.43,4.43,0,0,1-1.87-1,5.91,5.91,0,0,1-1.54-2.27l-.61-1.49h-7.1l-2.19,4.85H17.89L25.76,96H27l6,14.25a5.76,5.76,0,0,0,1.17,1.87,2.67,2.67,0,0,0,1.6.8v.67l-.6.09A5.83,5.83,0,0,1,34.43,113.74ZM22,107.57h6l-2.93-7Z"/><path class="cls-1" d="M40.14,113.63V99.49a4.8,4.8,0,0,0-.33-1.94,1.53,1.53,0,0,0-1.54-.73H38V96h3.2a2.81,2.81,0,0,1,1.45.32,1.77,1.77,0,0,1,.74,1.07,8.05,8.05,0,0,1,.21,2.08v12.94h9.2v1.2Z"/><path class="cls-1" d="M59.62,113.63a2.9,2.9,0,0,1-1.45-.3,1.73,1.73,0,0,1-.74-1.07,8.28,8.28,0,0,1-.21-2.1V96h3.47v14.14A4.8,4.8,0,0,0,61,112.1c.22.49.73.73,1.53.73h.27v.8Z"/><path class="cls-1" d="M73.17,114.09a11.15,11.15,0,0,1-2.16-.22,8.73,8.73,0,0,1-2-.62,4.34,4.34,0,0,1-1.4-1,2,2,0,0,1-.52-1.35v-3.12h.75a6.59,6.59,0,0,0,1.72,3.95,5.07,5.07,0,0,0,3.54,1.17,4.8,4.8,0,0,0,1.77-.29,2.46,2.46,0,0,0,1.18-.87,2.38,2.38,0,0,0,.41-1.42,2.63,2.63,0,0,0-.73-1.91,9.9,9.9,0,0,0-2-1.54l-3.28-2a7.68,7.68,0,0,1-2.56-2.19,4.55,4.55,0,0,1-.75-2.59,4,4,0,0,1,1.61-3.33,7,7,0,0,1,4.37-1.23,11.14,11.14,0,0,1,2.16.21,9.29,9.29,0,0,1,2,.63,4.45,4.45,0,0,1,1.4,1,2,2,0,0,1,.52,1.36v3.12h-.75a6.8,6.8,0,0,0-1.71-4,4.61,4.61,0,0,0-3.28-1.17,4.08,4.08,0,0,0-1.67.32,2.46,2.46,0,0,0-1.08.89,2.5,2.5,0,0,0-.37,1.38,2.31,2.31,0,0,0,.76,1.81,11.93,11.93,0,0,0,2,1.44l3.29,2a9.76,9.76,0,0,1,2.65,2.1,3.79,3.79,0,0,1,.84,2.49,4.35,4.35,0,0,1-1.73,3.63A8,8,0,0,1,73.17,114.09Z"/><path class="cls-1" d="M93.32,114.16a8.39,8.39,0,0,1-7.71-4.58,10.81,10.81,0,0,1,0-9.5,8.44,8.44,0,0,1,3.08-3.35,8.55,8.55,0,0,1,4.63-1.24,8.31,8.31,0,0,1,7.69,4.59,10.89,10.89,0,0,1,0,9.5,8.33,8.33,0,0,1-7.69,4.58Zm0-1.2a4.14,4.14,0,0,0,2.76-.94,5.89,5.89,0,0,0,1.74-2.78,16.58,16.58,0,0,0,0-8.84,6,6,0,0,0-1.74-2.77,4.14,4.14,0,0,0-2.76-.94,4.1,4.1,0,0,0-2.73.94,6,6,0,0,0-1.74,2.77,16.58,16.58,0,0,0,0,8.84A5.89,5.89,0,0,0,90.59,112,4.1,4.1,0,0,0,93.32,113Z"/><path class="cls-1" d="M120.86,113.71l-11.32-13.29v13.21h-1.33V99.22a3,3,0,0,0-.49-1.71,2.22,2.22,0,0,0-1.91-.69h-.14V96h1.87a6.34,6.34,0,0,1,2.47.4,3.86,3.86,0,0,1,1.56,1.2l9.18,10.67V96h1.34v17.69Z"/><path class="cls-1" d="M37.24,127.61a3.1,3.1,0,0,1-1.76-.49,3.23,3.23,0,0,1-1.14-1.31,4,4,0,0,1-.41-1.83,4.38,4.38,0,0,1,.26-1.5,3.7,3.7,0,0,1,.71-1.22,3.33,3.33,0,0,1,1.06-.82,2.8,2.8,0,0,1,1.28-.3,4.07,4.07,0,0,1,1.52.25,2.17,2.17,0,0,1,.93.6,1.13,1.13,0,0,1,.24.68c0,.3,0,.6,0,.92h-.21a2.7,2.7,0,0,0-.76-1.54,2.08,2.08,0,0,0-1.43-.49,2.67,2.67,0,0,0-1.28.32,2.32,2.32,0,0,0-.94,1.07,4.92,4.92,0,0,0-.34,2,4.57,4.57,0,0,0,.14,1.17,3.54,3.54,0,0,0,.45,1,2.43,2.43,0,0,0,.8.73,2.35,2.35,0,0,0,1.17.27,2.5,2.5,0,0,0,1.38-.38,3.67,3.67,0,0,0,1-1.11l.21.16a2.94,2.94,0,0,1-1.25,1.38A3.65,3.65,0,0,1,37.24,127.61Z"/><path class="cls-1" d="M46.49,127.61a3.08,3.08,0,0,1-1.75-.5,3.27,3.27,0,0,1-1.15-1.34,4.37,4.37,0,0,1-.41-1.9,4.3,4.3,0,0,1,.41-1.89,3.23,3.23,0,0,1,1.15-1.35,3.07,3.07,0,0,1,1.75-.49,3.1,3.1,0,0,1,1.76.49A3.3,3.3,0,0,1,49.4,122a4.29,4.29,0,0,1,.4,1.89,4.37,4.37,0,0,1-.4,1.9,3.34,3.34,0,0,1-1.15,1.34A3.11,3.11,0,0,1,46.49,127.61Zm0-.43a1.88,1.88,0,0,0,1.21-.4,2.68,2.68,0,0,0,.77-1.15,5.44,5.44,0,0,0,.26-1.76,5.38,5.38,0,0,0-.26-1.75A2.57,2.57,0,0,0,47.7,121a2,2,0,0,0-2.41,0,2.49,2.49,0,0,0-.77,1.15,5.11,5.11,0,0,0-.27,1.75,5.17,5.17,0,0,0,.27,1.76,2.6,2.6,0,0,0,.77,1.15A1.87,1.87,0,0,0,46.49,127.18Z"/><path class="cls-1" d="M55.44,127.58a4.19,4.19,0,0,1-.86-.09,3.67,3.67,0,0,1-.79-.27,1.67,1.67,0,0,1-.57-.41.76.76,0,0,1-.22-.54v-1.14h.2a2.53,2.53,0,0,0,.71,1.55,2.09,2.09,0,0,0,1.43.47A1.91,1.91,0,0,0,56,127a1.26,1.26,0,0,0,.52-.37,1,1,0,0,0,.2-.6,1.19,1.19,0,0,0-.29-.8,3.66,3.66,0,0,0-.89-.67l-1.31-.78a3,3,0,0,1-1-.82,1.78,1.78,0,0,1-.29-1,1.68,1.68,0,0,1,.57-1.32,2.2,2.2,0,0,1,1.5-.49,4.34,4.34,0,0,1,.8.08,3.48,3.48,0,0,1,.75.25,1.82,1.82,0,0,1,.55.4.81.81,0,0,1,.21.55v1.14h-.19a2.55,2.55,0,0,0-.7-1.54,2.07,2.07,0,0,0-1.42-.46,1.38,1.38,0,0,0-.59.14,1.16,1.16,0,0,0-.47.37.92.92,0,0,0-.17.57,1.06,1.06,0,0,0,.29.76,4.58,4.58,0,0,0,.89.64l1.31.78a4.11,4.11,0,0,1,1,.78,1.5,1.5,0,0,1,.32,1,1.84,1.84,0,0,1-.6,1.44A2.33,2.33,0,0,1,55.44,127.58Z"/><path class="cls-1" d="M69.23,127.87a2.45,2.45,0,0,1-1.2-.24,1.29,1.29,0,0,1-.61-.74,4.34,4.34,0,0,1-.17-1.31v-4.11l-2.67,5.92h-.21l-2.78-6v6h-.42v-7h1l2.56,5.55,2.51-5.55h1v5.23a3.75,3.75,0,0,0,.25,1.53.8.8,0,0,0,.77.55Z"/><path class="cls-1" d="M72.58,127.39v-5.76a1.83,1.83,0,0,0-.14-.77c-.08-.2-.29-.3-.61-.3h-.21v-.21h4.54a1.1,1.1,0,0,1,.57.12.64.64,0,0,1,.27.32,1.14,1.14,0,0,1,.07.41v.8h-.21a1.17,1.17,0,0,0-.35-.93,1.46,1.46,0,0,0-1-.29h-2v2.77h2.88V124H73.54v3h1.87a2.09,2.09,0,0,0,1.14-.27,1.77,1.77,0,0,0,.67-.91l.21.06-.37,1a.85.85,0,0,1-.28.39.84.84,0,0,1-.52.14Z"/><path class="cls-1" d="M82.61,127.39v-6.61h-1a1.46,1.46,0,0,0-1,.29,1.17,1.17,0,0,0-.34.93H80.1v-.8a1.15,1.15,0,0,1,.08-.41.64.64,0,0,1,.27-.32,1.08,1.08,0,0,1,.56-.12h5v.43h-2.4v6.61Z"/><path class="cls-1" d="M90.15,127.39a1.55,1.55,0,0,1-.59-.09.61.61,0,0,1-.29-.38,2.8,2.8,0,0,1-.08-.81v-5.76h1v5.76a1.92,1.92,0,0,0,.13.78.6.6,0,0,0,.61.29h.22v.21Z"/><path class="cls-1" d="M97.13,127.61a3.1,3.1,0,0,1-1.76-.49,3.25,3.25,0,0,1-1.15-1.31,4.09,4.09,0,0,1-.4-1.83,4.37,4.37,0,0,1,.25-1.5,3.72,3.72,0,0,1,.72-1.22,3.22,3.22,0,0,1,1.06-.82,2.77,2.77,0,0,1,1.28-.3,4.07,4.07,0,0,1,1.52.25,2.17,2.17,0,0,1,.93.6,1.2,1.2,0,0,1,.24.68c0,.3,0,.6,0,.92h-.22a2.64,2.64,0,0,0-.75-1.54,2.08,2.08,0,0,0-1.43-.49,2.64,2.64,0,0,0-1.28.32,2.22,2.22,0,0,0-.94,1.07,4.92,4.92,0,0,0-.34,2,4.57,4.57,0,0,0,.14,1.17,3.54,3.54,0,0,0,.45,1,2.25,2.25,0,0,0,2,1,2.45,2.45,0,0,0,1.37-.38,3.58,3.58,0,0,0,1-1.11l.21.16a3,3,0,0,1-1.25,1.38A3.65,3.65,0,0,1,97.13,127.61Z"/><path class="cls-1" d="M105.59,127.58a4.26,4.26,0,0,1-.86-.09,3.67,3.67,0,0,1-.79-.27,1.67,1.67,0,0,1-.57-.41.8.8,0,0,1-.21-.54v-1.14h.19a2.59,2.59,0,0,0,.71,1.55,2.09,2.09,0,0,0,1.43.47,2,2,0,0,0,.69-.12,1.41,1.41,0,0,0,.52-.37,1,1,0,0,0,.19-.6,1.19,1.19,0,0,0-.29-.8,3.78,3.78,0,0,0-.88-.67l-1.31-.78a3.07,3.07,0,0,1-1-.82,1.77,1.77,0,0,1-.28-1,1.68,1.68,0,0,1,.57-1.32,2.2,2.2,0,0,1,1.5-.49,4.43,4.43,0,0,1,.8.08,3.48,3.48,0,0,1,.75.25,1.77,1.77,0,0,1,.54.4.81.81,0,0,1,.21.55v1.14h-.19a2.61,2.61,0,0,0-.69-1.54,2.09,2.09,0,0,0-1.42-.46,1.39,1.39,0,0,0-.6.14,1.13,1.13,0,0,0-.46.37.92.92,0,0,0-.18.57,1,1,0,0,0,.3.76,4.46,4.46,0,0,0,.88.64l1.32.78a4,4,0,0,1,1,.78,1.5,1.5,0,0,1,.32,1,1.84,1.84,0,0,1-.6,1.44A2.33,2.33,0,0,1,105.59,127.58Z"/><path class="cls-2" d="M63.28,26.44a27.32,27.32,0,0,0,7.59,18.91,27.38,27.38,0,0,0,0-37.82A27.36,27.36,0,0,0,63.28,26.44Z"/><path class="cls-3" d="M54.84,32.77a27.34,27.34,0,0,0,16,12.58A27.38,27.38,0,0,0,52,12.6,27.32,27.32,0,0,0,54.84,32.77Z"/><path class="cls-4" d="M50.7,42.47a27.32,27.32,0,0,0,20.17,2.88A27.38,27.38,0,0,0,38.11,26.44,27.32,27.32,0,0,0,50.7,42.47Z"/><path class="cls-5" d="M52,52.94a27.36,27.36,0,0,0,18.91-7.59,27.38,27.38,0,0,0-37.82,0A27.32,27.32,0,0,0,52,52.94Z"/><path class="cls-2" d="M58.28,61.38a27.32,27.32,0,0,0,12.59-16A27.38,27.38,0,0,0,38.11,64.26,27.32,27.32,0,0,0,58.28,61.38Z"/><path class="cls-3" d="M68,65.52a27.37,27.37,0,0,0,2.89-20.17A27.36,27.36,0,0,0,52,78.11,27.33,27.33,0,0,0,68,65.52Z"/><path class="cls-4" d="M78.45,64.26a27.35,27.35,0,0,0-7.58-18.91,27.35,27.35,0,0,0,0,37.82A27.31,27.31,0,0,0,78.45,64.26Z"/><path class="cls-5" d="M86.89,57.94a27.33,27.33,0,0,0-16-12.59A27.36,27.36,0,0,0,89.78,78.11,27.37,27.37,0,0,0,86.89,57.94Z"/><path class="cls-2" d="M91,48.24a27.37,27.37,0,0,0-20.17-2.89,27.34,27.34,0,0,0,32.75,18.91A27.35,27.35,0,0,0,91,48.24Z"/><path class="cls-3" d="M89.78,37.77a27.36,27.36,0,0,0-18.91,7.58,27.35,27.35,0,0,0,37.82,0A27.39,27.39,0,0,0,89.78,37.77Z"/><path class="cls-4" d="M83.45,29.33a27.35,27.35,0,0,0-12.58,16,27.36,27.36,0,0,0,32.75-18.91A27.37,27.37,0,0,0,83.45,29.33Z"/><path class="cls-5" d="M73.75,25.19a27.29,27.29,0,0,0-2.88,20.16A27.37,27.37,0,0,0,89.78,12.6,27.32,27.32,0,0,0,73.75,25.19Z"/></g></svg>